# xmcd CD database file
#
# Track frame offsets:
#	150
#	5541
#	27675
#	45294
#	71208
#	88159
#	107660
#	125863
#	144254
#	162361
#	180506
#	198566
#	220766
#	238261
#	253964
#	271758
#	290841
#	310021
#
# Disc length: 4434 seconds
#
# Revision: 4
# Processed by: cddbd v1.5PL3 Copyright (c) Steve Scherf et al.
# Submitted via: CDex 1.51
#
DISCID=13115012
DTITLE=Various Artist - Music from the Club La Rocca, Ballroom Tunes 5
DYEAR=1995
DGENRE=House
TTITLE0=Intro La Rocca
TTITLE1=Castle Trancelott - Indoctrinate
TTITLE2=Yum Yum -  Let Me Go
TTITLE3=Size 9 - I'm Ready
TTITLE4=Scotti Deep - Brooklyn Beats
TTITLE5=R.A.W. - Unbe
TTITLE6=Non Food - Wild Party
TTITLE7=Phil and Fill Pres. Yoki Boys - Find A Way
TTITLE8=Natural Born Grooves - Forerunner
TTITLE9=Fanny Cadeo - I Want Your Love
TTITLE10=Tony Bruno - Exogroove
TTITLE11=Robert Miles - Red Zone Part 1
TTITLE12=Calvin Stones - Other Side Of Pleasure
TTITLE13=Aldrin Buzz - Saxomatic
TTITLE14=Blue Minds - Punch Too
TTITLE15=Culture Groove - I Feel The Friction
TTITLE16=Andrea Mendez - Bring Me Love
TTITLE17=Ce Ce Rogers - Come Together
EXTD=YEAR: 1995
EXTT0=
EXTT1=
EXTT2=
EXTT3=
EXTT4=
EXTT5=
EXTT6=
EXTT7=
EXTT8=
EXTT9=
EXTT10=
EXTT11=
EXTT12=
EXTT13=
EXTT14=
EXTT15=
EXTT16=
EXTT17=
PLAYORDER=
